<svg xmlns="http://www.w3.org/2000/svg" xmlns:xlink="http://www.w3.org/1999/xlink" width="500" zoomAndPan="magnify" viewBox="0 0 375 374.999991" height="500" preserveAspectRatio="xMidYMid meet" version="1.0"><defs><clipPath id="2a76575524"><path d="M 37.5 37.5 L 321.714844 37.5 L 321.714844 321.714844 L 37.5 321.714844 Z M 37.5 37.5 " clip-rule="nonzero"/></clipPath></defs><path fill="#ffe26e" d="M 298.976562 199.503906 C 298.976562 201.128906 298.9375 202.757812 298.859375 204.382812 C 298.777344 206.007812 298.660156 207.632812 298.5 209.253906 C 298.339844 210.871094 298.140625 212.488281 297.902344 214.097656 C 297.660156 215.707031 297.382812 217.3125 297.066406 218.910156 C 296.75 220.503906 296.390625 222.09375 295.996094 223.671875 C 295.601562 225.253906 295.167969 226.820312 294.695312 228.378906 C 294.222656 229.9375 293.710938 231.480469 293.164062 233.015625 C 292.613281 234.546875 292.027344 236.066406 291.40625 237.570312 C 290.78125 239.074219 290.121094 240.5625 289.425781 242.035156 C 288.730469 243.503906 288 244.957031 287.230469 246.394531 C 286.464844 247.832031 285.660156 249.246094 284.824219 250.644531 C 283.988281 252.039062 283.117188 253.414062 282.214844 254.769531 C 281.308594 256.121094 280.371094 257.453125 279.402344 258.757812 C 278.433594 260.066406 277.429688 261.351562 276.398438 262.609375 C 275.363281 263.867188 274.300781 265.101562 273.207031 266.304688 C 272.117188 267.511719 270.992188 268.691406 269.84375 269.84375 C 268.691406 270.992188 267.511719 272.117188 266.304688 273.207031 C 265.101562 274.300781 263.867188 275.363281 262.609375 276.398438 C 261.351562 277.429688 260.066406 278.433594 258.757812 279.402344 C 257.453125 280.371094 256.121094 281.308594 254.769531 282.214844 C 253.414062 283.117188 252.039062 283.988281 250.644531 284.824219 C 249.246094 285.660156 247.832031 286.464844 246.394531 287.230469 C 244.957031 288 243.503906 288.730469 242.035156 289.425781 C 240.5625 290.121094 239.074219 290.78125 237.570312 291.40625 C 236.066406 292.027344 234.546875 292.613281 233.015625 293.164062 C 231.480469 293.710938 229.9375 294.222656 228.378906 294.695312 C 226.820312 295.167969 225.253906 295.601562 223.671875 295.996094 C 222.09375 296.390625 220.503906 296.75 218.910156 297.066406 C 217.3125 297.382812 215.707031 297.660156 214.097656 297.902344 C 212.488281 298.140625 210.871094 298.339844 209.253906 298.5 C 207.632812 298.660156 206.007812 298.777344 204.382812 298.859375 C 202.757812 298.9375 201.128906 298.976562 199.503906 298.976562 C 197.875 298.976562 196.246094 298.9375 194.621094 298.859375 C 192.996094 298.777344 191.371094 298.660156 189.753906 298.5 C 188.132812 298.339844 186.515625 298.140625 184.90625 297.902344 C 183.296875 297.660156 181.691406 297.382812 180.097656 297.066406 C 178.5 296.75 176.910156 296.390625 175.332031 295.996094 C 173.753906 295.601562 172.183594 295.167969 170.625 294.695312 C 169.070312 294.222656 167.523438 293.710938 165.992188 293.164062 C 164.457031 292.613281 162.9375 292.027344 161.433594 291.40625 C 159.929688 290.78125 158.441406 290.121094 156.972656 289.425781 C 155.5 288.730469 154.046875 288 152.609375 287.230469 C 151.175781 286.464844 149.757812 285.660156 148.363281 284.824219 C 146.964844 283.988281 145.589844 283.117188 144.238281 282.214844 C 142.882812 281.308594 141.554688 280.371094 140.246094 279.402344 C 138.9375 278.433594 137.65625 277.429688 136.394531 276.398438 C 135.136719 275.363281 133.90625 274.300781 132.699219 273.207031 C 131.492188 272.117188 130.3125 270.992188 129.164062 269.84375 C 128.011719 268.691406 126.890625 267.511719 125.796875 266.304688 C 124.703125 265.101562 123.640625 263.867188 122.605469 262.609375 C 121.574219 261.351562 120.574219 260.066406 119.601562 258.757812 C 118.632812 257.453125 117.695312 256.121094 116.792969 254.769531 C 115.886719 253.414062 115.015625 252.039062 114.179688 250.644531 C 113.34375 249.246094 112.539062 247.832031 111.773438 246.394531 C 111.003906 244.957031 110.273438 243.503906 109.578125 242.035156 C 108.882812 240.5625 108.222656 239.074219 107.597656 237.570312 C 106.976562 236.066406 106.390625 234.546875 105.84375 233.015625 C 105.292969 231.480469 104.785156 229.9375 104.3125 228.378906 C 103.839844 226.820312 103.402344 225.253906 103.007812 223.671875 C 102.613281 222.09375 102.257812 220.503906 101.9375 218.910156 C 101.621094 217.3125 101.34375 215.707031 101.105469 214.097656 C 100.863281 212.488281 100.664062 210.871094 100.507812 209.253906 C 100.347656 207.632812 100.226562 206.007812 100.148438 204.382812 C 100.066406 202.757812 100.027344 201.128906 100.027344 199.503906 C 100.027344 197.875 100.066406 196.246094 100.148438 194.621094 C 100.226562 192.996094 100.347656 191.371094 100.507812 189.753906 C 100.664062 188.132812 100.863281 186.515625 101.105469 184.90625 C 101.34375 183.296875 101.621094 181.691406 101.9375 180.097656 C 102.257812 178.5 102.613281 176.910156 103.007812 175.332031 C 103.402344 173.753906 103.839844 172.183594 104.3125 170.625 C 104.785156 169.070312 105.292969 167.523438 105.84375 165.992188 C 106.390625 164.457031 106.976562 162.9375 107.597656 161.433594 C 108.222656 159.929688 108.882812 158.441406 109.578125 156.972656 C 110.273438 155.5 111.003906 154.046875 111.773438 152.609375 C 112.539062 151.175781 113.34375 149.757812 114.179688 148.363281 C 115.015625 146.964844 115.886719 145.589844 116.792969 144.238281 C 117.695312 142.882812 118.632812 141.554688 119.601562 140.246094 C 120.574219 138.9375 121.574219 137.65625 122.605469 136.394531 C 123.640625 135.136719 124.703125 133.90625 125.796875 132.699219 C 126.890625 131.492188 128.011719 130.3125 129.164062 129.164062 C 130.3125 128.011719 131.492188 126.890625 132.699219 125.796875 C 133.90625 124.703125 135.136719 123.640625 136.394531 122.605469 C 137.65625 121.574219 138.9375 120.574219 140.246094 119.601562 C 141.554688 118.632812 142.882812 117.695312 144.238281 116.792969 C 145.589844 115.886719 146.964844 115.015625 148.363281 114.179688 C 149.757812 113.34375 151.175781 112.539062 152.609375 111.773438 C 154.046875 111.003906 155.5 110.273438 156.972656 109.578125 C 158.441406 108.882812 159.929688 108.222656 161.433594 107.597656 C 162.9375 106.976562 164.457031 106.390625 165.992188 105.84375 C 167.523438 105.292969 169.070312 104.785156 170.625 104.3125 C 172.183594 103.839844 173.753906 103.402344 175.332031 103.007812 C 176.910156 102.613281 178.5 102.257812 180.097656 101.9375 C 181.691406 101.621094 183.296875 101.34375 184.90625 101.105469 C 186.515625 100.863281 188.132812 100.664062 189.753906 100.507812 C 191.371094 100.347656 192.996094 100.226562 194.621094 100.148438 C 196.246094 100.066406 197.875 100.027344 199.503906 100.027344 C 201.128906 100.027344 202.757812 100.066406 204.382812 100.148438 C 206.007812 100.226562 207.632812 100.347656 209.253906 100.507812 C 210.871094 100.664062 212.488281 100.863281 214.097656 101.105469 C 215.707031 101.34375 217.3125 101.621094 218.910156 101.9375 C 220.503906 102.257812 222.09375 102.613281 223.671875 103.007812 C 225.253906 103.402344 226.820312 103.839844 228.378906 104.3125 C 229.9375 104.785156 231.480469 105.292969 233.015625 105.84375 C 234.546875 106.390625 236.066406 106.976562 237.570312 107.597656 C 239.074219 108.222656 240.5625 108.882812 242.035156 109.578125 C 243.503906 110.273438 244.957031 111.003906 246.394531 111.773438 C 247.832031 112.539062 249.246094 113.34375 250.644531 114.179688 C 252.039062 115.015625 253.414062 115.886719 254.769531 116.792969 C 256.121094 117.695312 257.453125 118.632812 258.757812 119.601562 C 260.066406 120.574219 261.351562 121.574219 262.609375 122.605469 C 263.867188 123.640625 265.101562 124.703125 266.304688 125.796875 C 267.511719 126.890625 268.691406 128.011719 269.84375 129.164062 C 270.992188 130.3125 272.117188 131.492188 273.207031 132.699219 C 274.300781 133.90625 275.363281 135.136719 276.398438 136.394531 C 277.429688 137.65625 278.433594 138.9375 279.402344 140.246094 C 280.371094 141.554688 281.308594 142.882812 282.214844 144.238281 C 283.117188 145.589844 283.988281 146.964844 284.824219 148.363281 C 285.660156 149.757812 286.464844 151.175781 287.230469 152.609375 C 288 154.046875 288.730469 155.5 289.425781 156.972656 C 290.121094 158.441406 290.78125 159.929688 291.40625 161.433594 C 292.027344 162.9375 292.613281 164.457031 293.164062 165.992188 C 293.710938 167.523438 294.222656 169.070312 294.695312 170.625 C 295.167969 172.183594 295.601562 173.753906 295.996094 175.332031 C 296.390625 176.910156 296.75 178.5 297.066406 180.097656 C 297.382812 181.691406 297.660156 183.296875 297.902344 184.90625 C 298.140625 186.515625 298.339844 188.132812 298.5 189.753906 C 298.660156 191.371094 298.777344 192.996094 298.859375 194.621094 C 298.9375 196.246094 298.976562 197.875 298.976562 199.503906 Z M 298.976562 199.503906 " fill-opacity="1" fill-rule="nonzero"/><g clip-path="url(#2a76575524)"><path stroke-linecap="butt" transform="matrix(4.019405, 4.019405, -4.019405, 4.019405, 182.091453, 61.322881)" fill="none" stroke-linejoin="miter" d="M 20.726081 30.592681 C 23.076009 29.539198 31.499987 24.447687 31.499987 15.749648 C 31.507761 15.348275 31.498529 14.946416 31.473261 14.545043 C 31.447993 14.143669 31.406203 13.74424 31.347407 13.346268 C 31.289096 12.948782 31.214263 12.554212 31.123396 12.162071 C 31.032042 11.770417 30.925139 11.383621 30.801714 11.000713 C 30.679261 10.617805 30.540287 10.240728 30.385763 9.869482 C 30.232211 9.498236 30.062624 9.134279 29.877973 8.776639 C 29.693807 8.419485 29.495064 8.070106 29.28223 7.728987 C 29.068909 7.388354 28.841983 7.056468 28.60145 6.734301 C 28.360918 6.412133 28.107752 6.100656 27.841465 5.799383 C 27.575179 5.49811 27.296259 5.2085 27.006162 4.930065 C 26.716065 4.651631 26.414792 4.386316 26.102829 4.132664 C 25.79038 3.879498 25.468213 3.638965 25.135841 3.412525 C 24.80444 3.186084 24.463322 2.973249 24.113943 2.774507 C 23.764077 2.57625 23.406923 2.392084 23.04248 2.222983 C 22.677065 2.053881 22.305819 1.900329 21.928257 1.761841 C 21.55118 1.623839 21.168757 1.5009 20.78099 1.393997 " stroke="#24272a" stroke-width="4" stroke-opacity="1" stroke-miterlimit="10"/><path stroke-linecap="butt" transform="matrix(-5.309133, -2.034978, 2.034978, -5.309133, 288.876636, 208.011841)" fill="none" stroke-linejoin="miter" d="M 10.700168 0.17197 L 9.860759 9.48397 L -0.110878 9.728072 " stroke="#24272a" stroke-width="4" stroke-opacity="1" stroke-miterlimit="10"/><path stroke-linecap="butt" transform="matrix(-4.019405, -4.019405, 4.019405, -4.019405, 177.185897, 301.541231)" fill="none" stroke-linejoin="miter" d="M 15.749838 31.500004 C 16.007377 31.500004 16.265403 31.493687 16.522943 31.481053 C 16.780482 31.468419 17.037536 31.449468 17.294104 31.4242 C 17.550672 31.398932 17.805782 31.367347 18.061378 31.329444 C 18.316002 31.291542 18.569654 31.247809 18.822335 31.197273 C 19.075501 31.147223 19.326724 31.09037 19.576975 31.027686 C 19.82674 30.965487 20.075533 30.896486 20.321896 30.82214 C 20.568746 30.747308 20.813165 30.666158 21.056127 30.579664 C 21.298603 30.492683 21.539136 30.399872 21.777238 30.300743 C 22.015341 30.202587 22.251014 30.098113 22.483772 29.987808 C 22.717015 29.87799 22.946857 29.761854 23.17427 29.640373 C 23.401682 29.518892 23.626179 29.39158 23.847274 29.258922 C 24.067884 29.126751 24.285578 28.988749 24.500356 28.845887 C 24.714649 28.70254 24.925054 28.554333 25.132057 28.400781 C 25.339547 28.246743 25.542663 28.088332 25.741892 27.925061 C 25.940635 27.761305 26.135976 27.593175 26.326944 27.4197 C 26.517913 27.247197 26.704507 27.069349 26.886729 26.887128 C 27.06895 26.704906 27.246798 26.518311 27.419787 26.326857 C 27.593262 26.135889 27.761392 25.940548 27.925148 25.741805 C 28.088419 25.542576 28.24683 25.33946 28.400382 25.132456 C 28.553934 24.925453 28.702627 24.714562 28.845974 24.500269 C 28.988836 24.285491 29.126352 24.068283 29.25901 23.847187 C 29.391667 23.626092 29.518979 23.401595 29.639974 23.174669 C 29.761455 22.947256 29.877591 22.717414 29.987895 22.483685 C 30.0982 22.250927 30.202674 22.015254 30.300831 21.777151 C 30.399959 21.539049 30.49277 21.298516 30.579751 21.05604 C 30.666245 20.813078 30.747395 20.568658 30.821741 20.322295 C 30.896573 20.075446 30.965089 19.827138 31.027773 19.576888 C 31.090457 19.326637 31.14731 19.075414 31.19736 18.822248 C 31.24741 18.570053 31.291629 18.315915 31.329532 18.061291 C 31.367434 17.805695 31.399019 17.550585 31.424287 17.294017 C 31.449555 17.037449 31.468506 16.780395 31.48114 16.522856 C 31.493774 16.265316 31.499605 16.007776 31.500091 15.749751 C 31.500091 15.492211 31.493288 15.234671 31.480654 14.977131 C 31.468506 14.720078 31.449555 14.463024 31.424287 14.206456 C 31.399019 13.949888 31.367434 13.693806 31.329532 13.439182 C 31.292115 13.184072 31.247896 12.929934 31.19736 12.677253 C 31.146824 12.424573 31.090457 12.172864 31.028259 11.923099 C 30.965574 11.672849 30.896573 11.425027 30.821741 11.178178 C 30.746909 10.931329 30.666245 10.686423 30.579265 10.443947 C 30.492285 10.201471 30.399473 9.960938 30.301316 9.722836 C 30.202188 9.484733 30.097714 9.24906 29.987895 9.015816 C 29.877591 8.783059 29.761941 8.552731 29.64046 8.325318 C 29.518493 8.098392 29.391667 7.874381 29.259495 7.6528 C 29.126838 7.431704 28.988836 7.21401 28.845488 6.999718 C 28.702141 6.785425 28.553934 6.57502 28.400382 6.368017 C 28.24683 6.161013 28.088419 5.957897 27.924662 5.758182 C 27.761392 5.558953 27.592776 5.364098 27.420273 5.17313 C 27.246798 4.982162 27.06895 4.795567 26.886729 4.613345 C 26.704507 4.431124 26.517913 4.253276 26.326944 4.079801 C 26.135976 3.907298 25.941121 3.738682 25.741406 3.574926 C 25.542177 3.411655 25.339061 3.253244 25.132057 3.099692 C 24.925054 2.94614 24.714649 2.797933 24.500356 2.654586 C 24.286064 2.511238 24.06837 2.373236 23.847274 2.240579 C 23.625693 2.108407 23.401682 1.981581 23.174756 1.859614 C 22.947343 1.738133 22.717015 1.622483 22.484258 1.512179 C 22.251014 1.40236 22.015341 1.297886 21.777238 1.198758 C 21.539136 1.100601 21.298603 1.00779 21.056127 0.920809 C 20.813651 0.833829 20.568746 0.753165 20.321896 0.678333 C 20.075047 0.603501 19.827226 0.5345 19.576975 0.471815 C 19.326724 0.409131 19.075501 0.35325 18.822821 0.302714 C 18.57014 0.252178 18.316002 0.207959 18.060892 0.170543 C 17.806268 0.132641 17.550186 0.101055 17.293618 0.0757874 C 17.03705 0.0505194 16.779996 0.0315684 16.522457 0.0189343 C 16.264917 0.00630032 16.007863 -0.000016696 15.750324 -0.000016696 " stroke="#24272a" stroke-width="4" stroke-opacity="1" stroke-miterlimit="10"/><path stroke-linecap="butt" transform="matrix(5.678613, 0.295583, -0.295583, 5.678613, 70.974813, 190.345036)" fill="none" stroke-linejoin="miter" d="M 10.324149 0.000308827 L 9.587034 9.587252 L -0.000219594 10.324297 " stroke="#24272a" stroke-width="4" stroke-opacity="1" stroke-miterlimit="10"/></g></svg>