<svg xmlns="http://www.w3.org/2000/svg" xmlns:xlink="http://www.w3.org/1999/xlink" width="500" zoomAndPan="magnify" viewBox="0 0 375 374.999991" height="500" preserveAspectRatio="xMidYMid meet" version="1.0"><defs><clipPath id="e3bdeb7918"><path d="M 56.792969 52.25 L 318.203125 52.25 L 318.203125 313.660156 L 56.792969 313.660156 Z M 56.792969 52.25 " clip-rule="nonzero"/></clipPath></defs><path fill="#ffe26e" d="M 100.394531 294.449219 L 309.402344 294.449219 L 276.140625 108.578125 L 135.132812 108.578125 Z M 100.394531 294.449219 " fill-opacity="1" fill-rule="nonzero"/><g clip-path="url(#e3bdeb7918)"><path stroke-linecap="butt" transform="matrix(5.228203, 0, 0, 5.228203, 82.932825, 88.848861)" fill="none" stroke-linejoin="miter" d="M 9.0952 -0.00023035 L 31.154047 -0.00023035 L 31.453654 1.889311 L 36.999746 34.000309 L 0.000147105 34.000309 L 3.059725 16.300334 L 4.66012 7.031195 " stroke="#24272a" stroke-width="4" stroke-opacity="1" stroke-miterlimit="10"/><path stroke-linecap="butt" transform="matrix(-5.228203, 0, 0, -5.228203, 233.384814, 128.227681)" fill="none" stroke-linejoin="miter" d="M 5.713089 0.00021397 L 28.244882 0.00021397 L 26.362064 7.53223 L -0.000364327 7.53223 " stroke="#24272a" stroke-width="4" stroke-opacity="1" stroke-miterlimit="10"/></g><path fill="#24272a" d="M 176.96875 230.011719 L 195.128906 230.011719 L 195.128906 164.699219 L 179.882812 164.699219 C 177.21875 167.179688 174.292969 169.304688 171.109375 171.074219 C 167.925781 172.839844 164.578125 174.203125 161.0625 175.15625 L 161.0625 189.648438 C 166.851562 187.898438 172.152344 185.199219 176.96875 181.542969 Z M 176.96875 230.011719 " fill-opacity="1" fill-rule="nonzero"/></svg>