<svg xmlns="http://www.w3.org/2000/svg" xmlns:xlink="http://www.w3.org/1999/xlink" width="500" zoomAndPan="magnify" viewBox="0 0 375 374.999991" height="500" preserveAspectRatio="xMidYMid meet" version="1.0"><defs><clipPath id="9f40709e58"><path d="M 68.898438 70.894531 L 316.398438 70.894531 L 316.398438 318.394531 L 68.898438 318.394531 Z M 68.898438 70.894531 " clip-rule="nonzero"/></clipPath><clipPath id="26d9b156da"><path d="M 68.898438 127 L 316.398438 127 L 316.398438 318.394531 L 68.898438 318.394531 Z M 68.898438 127 " clip-rule="nonzero"/></clipPath></defs><path fill="#ffe26e" d="M 189.621094 137.105469 L 312.917969 137.105469 L 312.917969 229.578125 L 189.621094 229.578125 Z M 189.621094 137.105469 " fill-opacity="1" fill-rule="nonzero"/><g clip-path="url(#9f40709e58)"><path stroke-linecap="butt" transform="matrix(4.955859, 0, 0, 4.955859, 82.58014, 243.312685)" fill="none" stroke-linejoin="miter" d="M 0.000381644 6.706828 C 0.000381644 2.999884 2.409935 -0.0000372937 5.383057 -0.0000372937 L 12.559695 -0.0000372937 C 15.532817 -0.0000372937 17.943159 2.999884 17.943159 6.706828 " stroke="#24272a" stroke-width="4" stroke-opacity="1" stroke-miterlimit="10"/></g><path fill="#24272a" d="M 149.804688 201.023438 C 149.804688 201.757812 149.769531 202.488281 149.695312 203.21875 C 149.625 203.949219 149.515625 204.671875 149.367188 205.390625 C 149.222656 206.109375 149.042969 206.820312 148.828125 207.523438 C 148.609375 208.222656 148.359375 208.914062 148.074219 209.589844 C 147.789062 210.269531 147.46875 210.929688 147.117188 211.578125 C 146.765625 212.222656 146.382812 212.851562 145.96875 213.460938 C 145.554688 214.070312 145.113281 214.660156 144.640625 215.226562 C 144.167969 215.792969 143.667969 216.335938 143.140625 216.851562 C 142.613281 217.371094 142.0625 217.863281 141.484375 218.328125 C 140.90625 218.792969 140.308594 219.230469 139.691406 219.636719 C 139.070312 220.042969 138.429688 220.421875 137.773438 220.765625 C 137.117188 221.113281 136.445312 221.425781 135.753906 221.707031 C 135.066406 221.988281 134.363281 222.234375 133.652344 222.445312 C 132.9375 222.660156 132.214844 222.835938 131.484375 222.980469 C 130.753906 223.121094 130.015625 223.230469 129.273438 223.300781 C 128.535156 223.375 127.789062 223.410156 127.042969 223.410156 C 126.296875 223.410156 125.554688 223.375 124.8125 223.300781 C 124.070312 223.230469 123.335938 223.121094 122.601562 222.980469 C 121.871094 222.835938 121.148438 222.660156 120.4375 222.445312 C 119.722656 222.234375 119.023438 221.988281 118.332031 221.707031 C 117.644531 221.425781 116.972656 221.113281 116.3125 220.765625 C 115.65625 220.421875 115.019531 220.042969 114.398438 219.636719 C 113.777344 219.230469 113.179688 218.792969 112.605469 218.328125 C 112.027344 217.863281 111.476562 217.371094 110.949219 216.851562 C 110.421875 216.335938 109.921875 215.792969 109.449219 215.226562 C 108.976562 214.660156 108.53125 214.070312 108.117188 213.460938 C 107.703125 212.851562 107.320312 212.222656 106.96875 211.578125 C 106.617188 210.929688 106.300781 210.269531 106.015625 209.589844 C 105.730469 208.914062 105.476562 208.222656 105.261719 207.523438 C 105.046875 206.820312 104.863281 206.109375 104.71875 205.390625 C 104.574219 204.671875 104.464844 203.949219 104.390625 203.21875 C 104.320312 202.488281 104.28125 201.757812 104.28125 201.023438 C 104.28125 200.292969 104.320312 199.558594 104.390625 198.832031 C 104.464844 198.101562 104.574219 197.375 104.71875 196.65625 C 104.863281 195.9375 105.046875 195.226562 105.261719 194.527344 C 105.476562 193.824219 105.730469 193.136719 106.015625 192.457031 C 106.300781 191.78125 106.617188 191.117188 106.96875 190.472656 C 107.320312 189.824219 107.703125 189.195312 108.117188 188.585938 C 108.53125 187.976562 108.976562 187.390625 109.449219 186.824219 C 109.921875 186.257812 110.421875 185.714844 110.949219 185.195312 C 111.476562 184.675781 112.027344 184.183594 112.605469 183.71875 C 113.179688 183.253906 113.777344 182.820312 114.398438 182.410156 C 115.019531 182.003906 115.65625 181.628906 116.3125 181.28125 C 116.972656 180.9375 117.644531 180.625 118.332031 180.34375 C 119.023438 180.0625 119.722656 179.816406 120.4375 179.601562 C 121.148438 179.390625 121.871094 179.210938 122.601562 179.070312 C 123.335938 178.925781 124.070312 178.820312 124.8125 178.746094 C 125.554688 178.675781 126.296875 178.640625 127.042969 178.640625 C 127.789062 178.640625 128.535156 178.675781 129.273438 178.746094 C 130.015625 178.820312 130.753906 178.925781 131.484375 179.070312 C 132.214844 179.210938 132.9375 179.390625 133.652344 179.601562 C 134.363281 179.816406 135.066406 180.0625 135.753906 180.34375 C 136.445312 180.625 137.117188 180.9375 137.773438 181.28125 C 138.429688 181.628906 139.070312 182.003906 139.691406 182.410156 C 140.308594 182.820312 140.90625 183.253906 141.484375 183.71875 C 142.0625 184.183594 142.613281 184.675781 143.140625 185.195312 C 143.667969 185.714844 144.167969 186.257812 144.640625 186.824219 C 145.113281 187.390625 145.554688 187.976562 145.96875 188.585938 C 146.382812 189.195312 146.765625 189.824219 147.117188 190.472656 C 147.46875 191.117188 147.789062 191.78125 148.074219 192.457031 C 148.359375 193.136719 148.609375 193.824219 148.828125 194.527344 C 149.042969 195.226562 149.222656 195.9375 149.367188 196.65625 C 149.515625 197.375 149.625 198.101562 149.695312 198.832031 C 149.769531 199.558594 149.804688 200.292969 149.804688 201.023438 Z M 149.804688 201.023438 " fill-opacity="1" fill-rule="nonzero"/><path stroke-linecap="round" transform="matrix(4.93108, -0.520365, 0.520365, 4.93108, 210.069629, 175.878312)" fill="none" stroke-linejoin="miter" d="M 0.000167733 11.50006 L 12.964762 0.000184814 " stroke="#24272a" stroke-width="1" stroke-opacity="1" stroke-miterlimit="4"/><path stroke-linecap="butt" transform="matrix(4.955859, 0, 0, 4.955859, 166.239999, 113.028105)" fill="none" stroke-linejoin="miter" d="M 2.000126 2.000319 L 24.341895 2.000319 L 24.341895 17.756606 L 2.000126 17.756606 Z M 2.000126 2.000319 " stroke="#24272a" stroke-width="4" stroke-opacity="1" stroke-miterlimit="4"/><g clip-path="url(#26d9b156da)"><path stroke-linecap="round" transform="matrix(4.828841, 1.114826, -1.114826, 4.828841, 181.781565, 233.267152)" fill="none" stroke-linejoin="miter" d="M 0.000262134 9.216704 L 5.859178 0.00034512 " stroke="#24272a" stroke-width="4" stroke-opacity="1" stroke-miterlimit="4"/></g></svg>