<svg xmlns="http://www.w3.org/2000/svg" xmlns:xlink="http://www.w3.org/1999/xlink" width="500" zoomAndPan="magnify" viewBox="0 0 375 374.999991" height="500" preserveAspectRatio="xMidYMid meet" version="1.0"><path fill="#ffe26e" d="M 121.589844 115.410156 L 279.773438 115.410156 L 279.773438 273.597656 L 121.589844 273.597656 Z M 121.589844 115.410156 " fill-opacity="1" fill-rule="nonzero"/><path stroke-linecap="butt" transform="matrix(4.394062, 0, 0, 4.394062, 104.012064, 97.834798)" fill="none" stroke-linejoin="miter" d="M -0.0000785878 0.000259242 L 8.999993 0.000259242 L 8.999993 9.000331 L -0.0000785878 9.000331 Z M -0.0000785878 0.000259242 " stroke="#24272a" stroke-width="4" stroke-opacity="1" stroke-miterlimit="10"/><path stroke-linecap="butt" transform="matrix(4.394062, 0, 0, 4.394062, 213.863618, 97.834798)" fill="none" stroke-linejoin="miter" d="M -0.0000767414 0.000259242 L 8.999995 0.000259242 L 8.999995 9.000331 L -0.0000767414 9.000331 Z M -0.0000767414 0.000259242 " stroke="#24272a" stroke-width="4" stroke-opacity="1" stroke-miterlimit="10"/><path stroke-linecap="butt" transform="matrix(4.394062, 0, 0, 4.394062, 104.012064, 207.686353)" fill="none" stroke-linejoin="miter" d="M -0.0000785878 0.000261088 L 8.999993 0.000261088 L 8.999993 9.000333 L -0.0000785878 9.000333 Z M -0.0000785878 0.000261088 " stroke="#24272a" stroke-width="4" stroke-opacity="1" stroke-miterlimit="10"/><path stroke-linecap="butt" transform="matrix(4.394062, 0, 0, 4.394062, 251.015438, 181.32198)" fill="none" stroke-linejoin="miter" d="M 2.726556 -0.000379511 L -3.000278 -0.000379511 L -3.000278 5.727343 " stroke="#24272a" stroke-width="4" stroke-opacity="1" stroke-miterlimit="10"/><path stroke-linecap="butt" transform="matrix(4.394062, 0, 0, 4.394062, 192.293166, 147.768917)" fill="none" stroke-linejoin="miter" d="M -3.000365 0.00013986 L -3.000365 7.635621 L 2.727357 7.635621 " stroke="#24272a" stroke-width="4" stroke-opacity="1" stroke-miterlimit="10"/><path stroke-linecap="butt" transform="matrix(4.394062, 0, 0, 4.394062, 256.806784, 240.044223)" fill="none" stroke-linejoin="miter" d="M -0.500086 -0.000285541 L -0.500086 3.8179 " stroke="#24272a" stroke-width="2" stroke-opacity="1" stroke-miterlimit="10"/><path stroke-linecap="butt" transform="matrix(4.394062, 0, 0, 4.394062, 106.209094, 168.539653)" fill="none" stroke-linejoin="miter" d="M -2.500292 0.999972 L 1.317894 0.999972 " stroke="#24272a" stroke-width="2" stroke-opacity="1" stroke-miterlimit="10"/><path stroke-linecap="butt" transform="matrix(4.394062, 0, 0, 4.394062, 114.997219, 168.539653)" fill="none" stroke-linejoin="miter" d="M -4.500292 0.999972 L 3.136079 0.999972 " stroke="#24272a" stroke-width="4" stroke-opacity="1" stroke-miterlimit="10"/><path stroke-linecap="butt" transform="matrix(4.394062, 0, 0, 4.394062, 181.308009, 89.046673)" fill="none" stroke-linejoin="miter" d="M -0.500365 0.0000458909 L -0.500365 3.818231 " stroke="#24272a" stroke-width="4" stroke-opacity="1" stroke-miterlimit="10"/><path stroke-linecap="butt" transform="matrix(-4.394062, 0, 0, -4.394062, 254.609753, 248.432504)" fill="none" stroke-linejoin="miter" d="M 17.182364 5.726585 L 9.545105 5.726585 L 9.545105 -0.000248077 L 0.0000859297 -0.000248077 " stroke="#24272a" stroke-width="4" stroke-opacity="1" stroke-miterlimit="10"/></svg>