<svg xmlns="http://www.w3.org/2000/svg" xmlns:xlink="http://www.w3.org/1999/xlink" width="500" zoomAndPan="magnify" viewBox="0 0 375 374.999991" height="500" preserveAspectRatio="xMidYMid meet" version="1.0"><defs><clipPath id="9d8cea8ef3"><path d="M 17.5625 22.027344 L 348.503906 22.027344 L 348.503906 352.972656 L 17.5625 352.972656 Z M 17.5625 22.027344 " clip-rule="nonzero"/></clipPath><clipPath id="75a353699c"><path d="M 183.035156 22.027344 C 91.648438 22.027344 17.5625 96.113281 17.5625 187.5 C 17.5625 278.886719 91.648438 352.972656 183.035156 352.972656 C 274.421875 352.972656 348.503906 278.886719 348.503906 187.5 C 348.503906 96.113281 274.421875 22.027344 183.035156 22.027344 Z M 183.035156 22.027344 " clip-rule="nonzero"/></clipPath><clipPath id="0b085f8929"><path d="M 54.476562 98 L 295 98 L 295 298.21875 L 54.476562 298.21875 Z M 54.476562 98 " clip-rule="nonzero"/></clipPath></defs><g clip-path="url(#9d8cea8ef3)"><g clip-path="url(#75a353699c)"><path fill="#ffe26e" d="M 17.5625 22.027344 L 348.503906 22.027344 L 348.503906 352.972656 L 17.5625 352.972656 Z M 17.5625 22.027344 " fill-opacity="1" fill-rule="nonzero"/></g></g><g clip-path="url(#0b085f8929)"><path fill="#ffffff" d="M 132.867188 99.652344 C 132.605469 98.605469 131.613281 97.976562 130.566406 98.238281 C 129.886719 98.394531 129.308594 98.972656 129.152344 99.652344 C 125.804688 112.203125 117.542969 135.371094 99.34375 149.542969 C 86.6875 159.375 71.890625 166.171875 56.199219 169.363281 C 55.15625 169.570312 54.476562 170.566406 54.683594 171.609375 C 54.839844 172.34375 55.363281 172.867188 56.042969 173.074219 C 68.804688 176.632812 90.976562 184.421875 102.222656 197.652344 C 111.113281 208.113281 119.007812 234.3125 122.460938 247.125 C 122.773438 248.121094 123.820312 248.746094 124.8125 248.433594 C 125.441406 248.277344 125.964844 247.753906 126.121094 247.125 C 129.675781 234.105469 138.878906 207.171875 156.085938 195.71875 C 171.460938 185.46875 188.5625 180.34375 198.238281 178.042969 C 199.28125 177.78125 199.859375 176.734375 199.597656 175.691406 C 199.441406 175.0625 198.96875 174.539062 198.339844 174.382812 C 186.679688 170.929688 164.976562 163.136719 156.085938 151.476562 C 142.28125 133.382812 135.691406 111.574219 132.867188 99.652344 Z M 229.5625 207.121094 C 229.40625 206.492188 228.777344 206.125 228.148438 206.28125 C 227.730469 206.386719 227.417969 206.699219 227.3125 207.121094 C 225.273438 214.808594 220.203125 228.980469 209.0625 237.609375 C 201.324219 243.621094 192.273438 247.753906 182.652344 249.6875 C 182.023438 249.792969 181.605469 250.421875 181.761719 251.046875 C 181.867188 251.464844 182.183594 251.832031 182.601562 251.9375 C 190.390625 254.132812 203.988281 258.839844 210.839844 266.945312 C 216.277344 273.328125 221.089844 289.382812 223.234375 297.226562 C 223.390625 297.851562 224.070312 298.21875 224.644531 298.0625 C 225.066406 297.957031 225.328125 297.644531 225.484375 297.226562 C 227.679688 289.277344 233.273438 272.804688 243.785156 265.796875 C 253.199219 259.519531 263.660156 256.382812 269.570312 254.96875 C 270.195312 254.8125 270.5625 254.1875 270.40625 253.558594 C 270.300781 253.140625 269.988281 252.828125 269.621094 252.722656 C 262.457031 250.578125 249.226562 245.871094 243.785156 238.707031 C 235.316406 227.777344 231.289062 214.441406 229.5625 207.121094 Z M 267.789062 119.679688 C 267.6875 119.261719 267.269531 119 266.847656 119.105469 C 266.589844 119.15625 266.378906 119.367188 266.273438 119.679688 C 264.914062 124.804688 261.566406 134.167969 254.140625 139.917969 C 249.015625 143.894531 243.003906 146.664062 236.621094 147.972656 C 236.203125 148.078125 235.941406 148.441406 235.996094 148.863281 C 236.046875 149.175781 236.257812 149.382812 236.570312 149.4375 C 241.746094 150.902344 250.742188 154.039062 255.34375 159.425781 C 258.953125 163.660156 262.144531 174.328125 263.554688 179.507812 C 263.660156 179.925781 264.078125 180.132812 264.496094 180.03125 C 264.757812 179.976562 264.964844 179.769531 265.019531 179.507812 C 266.484375 174.226562 270.195312 163.296875 277.203125 158.640625 C 283.425781 154.457031 290.382812 152.417969 294.355469 151.476562 C 294.777344 151.371094 295.035156 150.953125 294.933594 150.535156 C 294.878906 150.273438 294.671875 150.0625 294.410156 149.960938 C 289.652344 148.546875 280.863281 145.410156 277.257812 140.652344 C 271.660156 133.382812 268.941406 124.542969 267.789062 119.679688 Z M 267.789062 119.679688 " fill-opacity="1" fill-rule="nonzero"/></g></svg>